<svg id="Server_Error" data-name="Server Error" xmlns="http://www.w3.org/2000/svg" width="218" height="218" viewBox="0 0 218 218"><defs><style>.cls-1{fill:#7d9ab3;}.cls-1,.cls-11,.cls-2,.cls-3,.cls-4,.cls-5,.cls-6{fill-rule:evenodd;}.cls-11,.cls-2{fill:#fff;}.cls-3{fill:#7db342;}.cls-4{fill:#62788c;}.cls-5{fill:#d7565a;}.cls-6{fill:#cfe1e6;}.cls-7{fill:#bacacf;}.cls-8{fill:#e7f0f3;}.cls-9{fill:#4c6573;}.cls-10{fill:#fafbfb;}.cls-11{opacity:0.1;}</style></defs><title>Error-Illustrations</title><g id="Servers"><g id="Server"><path id="Body" class="cls-1" d="M112,158H214a4,4,0,0,1,4,4v24a4,4,0,0,1-4,4H112a4,4,0,0,1-4-4V162A4,4,0,0,1,112,158Z"/><path id="Whote_Circle" data-name="Whote Circle" class="cls-2" d="M201,169a5,5,0,1,1-5,5A5,5,0,0,1,201,169Z"/><path id="Dot" class="cls-3" d="M201,171a3,3,0,1,1-3,3A3,3,0,0,1,201,171Z"/><g id="Grill"><path class="cls-4" d="M117.5,166a1.5,1.5,0,0,0-1.5,1.5v13a1.5,1.5,0,0,0,3,0v-13A1.5,1.5,0,0,0,117.5,166Zm6,0a1.5,1.5,0,0,0-1.5,1.5v13a1.5,1.5,0,1,0,3,0v-13A1.5,1.5,0,0,0,123.5,166Zm6,0a1.5,1.5,0,0,0-1.5,1.5v13a1.5,1.5,0,1,0,3,0v-13A1.5,1.5,0,0,0,129.5,166Zm6,0a1.5,1.5,0,0,0-1.5,1.5v13a1.5,1.5,0,0,0,3,0v-13A1.5,1.5,0,0,0,135.5,166Zm6,0a1.5,1.5,0,0,0-1.5,1.5v13a1.5,1.5,0,0,0,3,0v-13A1.5,1.5,0,0,0,141.5,166Zm6,0a1.5,1.5,0,0,0-1.5,1.5v13a1.5,1.5,0,1,0,3,0v-13A1.5,1.5,0,0,0,147.5,166Zm6,0a1.5,1.5,0,0,0-1.5,1.5v13a1.5,1.5,0,1,0,3,0v-13A1.5,1.5,0,0,0,153.5,166Zm6,0a1.5,1.5,0,0,0-1.5,1.5v13a1.5,1.5,0,0,0,3,0v-13A1.5,1.5,0,0,0,159.5,166Zm6,0a1.5,1.5,0,0,0-1.5,1.5v13a1.5,1.5,0,1,0,3,0v-13A1.5,1.5,0,0,0,165.5,166Zm6,0a1.5,1.5,0,0,0-1.5,1.5v13a1.5,1.5,0,1,0,3,0v-13A1.5,1.5,0,0,0,171.5,166Zm6,0a1.5,1.5,0,0,0-1.5,1.5v13a1.5,1.5,0,0,0,3,0v-13A1.5,1.5,0,0,0,177.5,166Zm6,0a1.5,1.5,0,0,0-1.5,1.5v13a1.5,1.5,0,1,0,3,0v-13A1.5,1.5,0,0,0,183.5,166Z"/></g></g><g id="Server-2" data-name="Server"><path id="Body-2" data-name="Body" class="cls-1" d="M112,125H214a4,4,0,0,1,4,4v24a4,4,0,0,1-4,4H112a4,4,0,0,1-4-4V129A4,4,0,0,1,112,125Z"/><path id="Whote_Circle-2" data-name="Whote Circle" class="cls-2" d="M201,136a5,5,0,1,1-5,5A5,5,0,0,1,201,136Z"/><path id="Dot-2" data-name="Dot" class="cls-5" d="M201,138a3,3,0,1,1-3,3A3,3,0,0,1,201,138Z"/><g id="Grill-2" data-name="Grill"><path class="cls-4" d="M117.5,133a1.5,1.5,0,0,0-1.5,1.5v13a1.5,1.5,0,0,0,3,0v-13A1.5,1.5,0,0,0,117.5,133Zm6,0a1.5,1.5,0,0,0-1.5,1.5v13a1.5,1.5,0,1,0,3,0v-13A1.5,1.5,0,0,0,123.5,133Zm6,0a1.5,1.5,0,0,0-1.5,1.5v13a1.5,1.5,0,1,0,3,0v-13A1.5,1.5,0,0,0,129.5,133Zm6,0a1.5,1.5,0,0,0-1.5,1.5v13a1.5,1.5,0,0,0,3,0v-13A1.5,1.5,0,0,0,135.5,133Zm6,0a1.5,1.5,0,0,0-1.5,1.5v13a1.5,1.5,0,0,0,3,0v-13A1.5,1.5,0,0,0,141.5,133Zm6,0a1.5,1.5,0,0,0-1.5,1.5v13a1.5,1.5,0,1,0,3,0v-13A1.5,1.5,0,0,0,147.5,133Zm6,0a1.5,1.5,0,0,0-1.5,1.5v13a1.5,1.5,0,1,0,3,0v-13A1.5,1.5,0,0,0,153.5,133Zm6,0a1.5,1.5,0,0,0-1.5,1.5v13a1.5,1.5,0,0,0,3,0v-13A1.5,1.5,0,0,0,159.5,133Zm6,0a1.5,1.5,0,0,0-1.5,1.5v13a1.5,1.5,0,1,0,3,0v-13A1.5,1.5,0,0,0,165.5,133Zm6,0a1.5,1.5,0,0,0-1.5,1.5v13a1.5,1.5,0,1,0,3,0v-13A1.5,1.5,0,0,0,171.5,133Zm6,0a1.5,1.5,0,0,0-1.5,1.5v13a1.5,1.5,0,0,0,3,0v-13A1.5,1.5,0,0,0,177.5,133Zm6,0a1.5,1.5,0,0,0-1.5,1.5v13a1.5,1.5,0,1,0,3,0v-13A1.5,1.5,0,0,0,183.5,133Z"/></g></g><g id="Server-3" data-name="Server"><path id="Body-3" data-name="Body" class="cls-1" d="M112,92H214a4,4,0,0,1,4,4v24a4,4,0,0,1-4,4H112a4,4,0,0,1-4-4V96A4,4,0,0,1,112,92Z"/><path id="Whote_Circle-3" data-name="Whote Circle" class="cls-2" d="M201,103a5,5,0,1,1-5,5A5,5,0,0,1,201,103Z"/><path id="Dot-3" data-name="Dot" class="cls-3" d="M201,105a3,3,0,1,1-3,3A3,3,0,0,1,201,105Z"/><g id="Grill-3" data-name="Grill"><path class="cls-4" d="M117.5,100a1.5,1.5,0,0,0-1.5,1.5v13a1.5,1.5,0,0,0,3,0v-13A1.5,1.5,0,0,0,117.5,100Zm6,0a1.5,1.5,0,0,0-1.5,1.5v13a1.5,1.5,0,1,0,3,0v-13A1.5,1.5,0,0,0,123.5,100Zm6,0a1.5,1.5,0,0,0-1.5,1.5v13a1.5,1.5,0,1,0,3,0v-13A1.5,1.5,0,0,0,129.5,100Zm6,0a1.5,1.5,0,0,0-1.5,1.5v13a1.5,1.5,0,0,0,3,0v-13A1.5,1.5,0,0,0,135.5,100Zm6,0a1.5,1.5,0,0,0-1.5,1.5v13a1.5,1.5,0,0,0,3,0v-13A1.5,1.5,0,0,0,141.5,100Zm6,0a1.5,1.5,0,0,0-1.5,1.5v13a1.5,1.5,0,1,0,3,0v-13A1.5,1.5,0,0,0,147.5,100Zm6,0a1.5,1.5,0,0,0-1.5,1.5v13a1.5,1.5,0,1,0,3,0v-13A1.5,1.5,0,0,0,153.5,100Zm6,0a1.5,1.5,0,0,0-1.5,1.5v13a1.5,1.5,0,0,0,3,0v-13A1.5,1.5,0,0,0,159.5,100Zm6,0a1.5,1.5,0,0,0-1.5,1.5v13a1.5,1.5,0,1,0,3,0v-13A1.5,1.5,0,0,0,165.5,100Zm6,0a1.5,1.5,0,0,0-1.5,1.5v13a1.5,1.5,0,1,0,3,0v-13A1.5,1.5,0,0,0,171.5,100Zm6,0a1.5,1.5,0,0,0-1.5,1.5v13a1.5,1.5,0,0,0,3,0v-13A1.5,1.5,0,0,0,177.5,100Zm6,0a1.5,1.5,0,0,0-1.5,1.5v13a1.5,1.5,0,1,0,3,0v-13A1.5,1.5,0,0,0,183.5,100Z"/></g></g><g id="Server-4" data-name="Server"><path id="Body-4" data-name="Body" class="cls-1" d="M112,59H214a4,4,0,0,1,4,4V87a4,4,0,0,1-4,4H112a4,4,0,0,1-4-4V63A4,4,0,0,1,112,59Z"/><path id="Whote_Circle-4" data-name="Whote Circle" class="cls-2" d="M201,70a5,5,0,1,1-5,5A5,5,0,0,1,201,70Z"/><path id="Dot-4" data-name="Dot" class="cls-5" d="M201,72a3,3,0,1,1-3,3A3,3,0,0,1,201,72Z"/><g id="Grill-4" data-name="Grill"><path class="cls-4" d="M117.5,67a1.5,1.5,0,0,0-1.5,1.5v13a1.5,1.5,0,0,0,3,0v-13A1.5,1.5,0,0,0,117.5,67Zm6,0a1.5,1.5,0,0,0-1.5,1.5v13a1.5,1.5,0,1,0,3,0v-13A1.5,1.5,0,0,0,123.5,67Zm6,0a1.5,1.5,0,0,0-1.5,1.5v13a1.5,1.5,0,1,0,3,0v-13A1.5,1.5,0,0,0,129.5,67Zm6,0a1.5,1.5,0,0,0-1.5,1.5v13a1.5,1.5,0,0,0,3,0v-13A1.5,1.5,0,0,0,135.5,67Zm6,0a1.5,1.5,0,0,0-1.5,1.5v13a1.5,1.5,0,0,0,3,0v-13A1.5,1.5,0,0,0,141.5,67Zm6,0a1.5,1.5,0,0,0-1.5,1.5v13a1.5,1.5,0,1,0,3,0v-13A1.5,1.5,0,0,0,147.5,67Zm6,0a1.5,1.5,0,0,0-1.5,1.5v13a1.5,1.5,0,1,0,3,0v-13A1.5,1.5,0,0,0,153.5,67Zm6,0a1.5,1.5,0,0,0-1.5,1.5v13a1.5,1.5,0,0,0,3,0v-13A1.5,1.5,0,0,0,159.5,67Zm6,0a1.5,1.5,0,0,0-1.5,1.5v13a1.5,1.5,0,1,0,3,0v-13A1.5,1.5,0,0,0,165.5,67Zm6,0a1.5,1.5,0,0,0-1.5,1.5v13a1.5,1.5,0,1,0,3,0v-13A1.5,1.5,0,0,0,171.5,67Zm6,0a1.5,1.5,0,0,0-1.5,1.5v13a1.5,1.5,0,0,0,3,0v-13A1.5,1.5,0,0,0,177.5,67Zm6,0a1.5,1.5,0,0,0-1.5,1.5v13a1.5,1.5,0,1,0,3,0v-13A1.5,1.5,0,0,0,183.5,67Z"/></g></g><g id="Server-5" data-name="Server"><path id="Body-5" data-name="Body" class="cls-1" d="M112,26H214a4,4,0,0,1,4,4V54a4,4,0,0,1-4,4H112a4,4,0,0,1-4-4V30A4,4,0,0,1,112,26Z"/><path id="Whote_Circle-5" data-name="Whote Circle" class="cls-2" d="M201,37a5,5,0,1,1-5,5A5,5,0,0,1,201,37Z"/><path id="Dot-5" data-name="Dot" class="cls-5" d="M201,39a3,3,0,1,1-3,3A3,3,0,0,1,201,39Z"/><g id="Grill-5" data-name="Grill"><path class="cls-4" d="M117.5,34a1.5,1.5,0,0,0-1.5,1.5v13a1.5,1.5,0,0,0,3,0v-13A1.5,1.5,0,0,0,117.5,34Zm6,0a1.5,1.5,0,0,0-1.5,1.5v13a1.5,1.5,0,1,0,3,0v-13A1.5,1.5,0,0,0,123.5,34Zm6,0a1.5,1.5,0,0,0-1.5,1.5v13a1.5,1.5,0,1,0,3,0v-13A1.5,1.5,0,0,0,129.5,34Zm6,0a1.5,1.5,0,0,0-1.5,1.5v13a1.5,1.5,0,0,0,3,0v-13A1.5,1.5,0,0,0,135.5,34Zm6,0a1.5,1.5,0,0,0-1.5,1.5v13a1.5,1.5,0,0,0,3,0v-13A1.5,1.5,0,0,0,141.5,34Zm6,0a1.5,1.5,0,0,0-1.5,1.5v13a1.5,1.5,0,1,0,3,0v-13A1.5,1.5,0,0,0,147.5,34Zm6,0a1.5,1.5,0,0,0-1.5,1.5v13a1.5,1.5,0,1,0,3,0v-13A1.5,1.5,0,0,0,153.5,34Zm6,0a1.5,1.5,0,0,0-1.5,1.5v13a1.5,1.5,0,0,0,3,0v-13A1.5,1.5,0,0,0,159.5,34Zm6,0a1.5,1.5,0,0,0-1.5,1.5v13a1.5,1.5,0,1,0,3,0v-13A1.5,1.5,0,0,0,165.5,34Zm6,0a1.5,1.5,0,0,0-1.5,1.5v13a1.5,1.5,0,1,0,3,0v-13A1.5,1.5,0,0,0,171.5,34Zm6,0a1.5,1.5,0,0,0-1.5,1.5v13a1.5,1.5,0,0,0,3,0v-13A1.5,1.5,0,0,0,177.5,34Zm6,0a1.5,1.5,0,0,0-1.5,1.5v13a1.5,1.5,0,1,0,3,0v-13A1.5,1.5,0,0,0,183.5,34Z"/></g></g></g><g id="Screen"><g id="Screen_Leg" data-name="Screen Leg"><path class="cls-6" d="M122,186H100V151H74v35H52a4.3,4.3,0,0,0-4,4h78A4.3,4.3,0,0,0,122,186ZM92,175a5,5,0,1,1-10,0V159H92v16Z"/></g><rect id="Screen_Leg_Shadow" data-name="Screen Leg Shadow" class="cls-7" x="92" y="164" width="8" height="4"/><rect id="Screen_Leg_Shadow-2" data-name="Screen Leg Shadow" class="cls-7" x="74" y="164" width="8" height="4"/><rect id="Screen_Leg_Highlight" data-name="Screen Leg Highlight" class="cls-8" x="74" y="185" width="26" height="1"/><rect id="Screen-2" data-name="Screen" class="cls-9" y="55" width="174" height="109" rx="4" ry="4"/><rect id="Screen_Pixels" data-name="Screen Pixels" class="cls-10" x="5" y="60" width="164" height="99" rx="2" ry="2"/><g id="Error"><path class="cls-5" d="M87,75a35,35,0,1,0,35,35A35,35,0,0,0,87,75Zm0,21c0.77,0,2.28.63,2.28,1.4L88.4,114.2a1.4,1.4,0,0,1-2.8,0L84.77,97.4C84.77,96.63,86.23,96,87,96Zm0,29.4a2.8,2.8,0,1,1,2.8-2.8A2.8,2.8,0,0,1,87,125.4Z"/></g><path id="Reflection" class="cls-11" d="M4,55H131.59L36.66,164H4a4,4,0,0,1-4-4V59A4,4,0,0,1,4,55Z"/></g></svg>