<?xml version="1.0" encoding="UTF-8" standalone="no"?>
<!DOCTYPE svg PUBLIC "-//W3C//DTD SVG 1.1//EN" "http://www.w3.org/Graphics/SVG/1.1/DTD/svg11.dtd">
<svg width="100%" height="100%" viewBox="0 0 2560 1440" version="1.1" xmlns="http://www.w3.org/2000/svg" xmlns:xlink="http://www.w3.org/1999/xlink" xml:space="preserve" xmlns:serif="http://www.serif.com/" style="fill-rule:evenodd;clip-rule:evenodd;stroke-linecap:round;stroke-linejoin:round;stroke-miterlimit:1.5;">
    <rect id="Artboard1" x="0" y="0" width="2560" height="1440" style="fill:none;"/>
    <g id="Artboard11" serif:id="Artboard1">
        <path d="M7,710L7,537L134,537L134,123L460,123L460,101L1165,101L1165,169.5L1195,169.5L1195,238L1502,238L1502,123L1687,123L1687,466L2208,466L2208,350L2441,350L2441,1099L2552,1099L2552,1295L2441,1295L2441,1323L2208,1323L2208,1295L1495,1295L1495,1027L1571,1027L1571,764L1392,764L1392,694L351,694L351,710L7,710Z" style="fill:rgb(254,255,254);"/>
        <path d="M1502,475L1688,475L1688,471" style="fill:none;stroke:black;stroke-width:0.56px;"/>
        <g transform="matrix(1,0,0,1.01154,0,-8.81538)">
            <path d="M1648,764L1770,764L1770,1024" style="fill:none;stroke:black;stroke-width:0.55px;"/>
        </g>
        <rect x="2002" y="478" width="12" height="32" style="fill:none;stroke:black;stroke-width:0.56px;"/>
        <rect x="2178" y="478" width="10" height="30" style="fill:none;stroke:black;stroke-width:0.56px;"/>
        <rect x="2020" y="470" width="50" height="8" style="fill:none;stroke:black;stroke-width:0.56px;"/>
        <g transform="matrix(1,0,0,1,103,0)">
            <rect x="2020" y="470" width="50" height="8" style="fill:none;stroke:black;stroke-width:0.56px;"/>
        </g>
        <rect x="1796" y="478" width="11" height="32" style="fill:none;stroke:black;stroke-width:0.56px;"/>
        <rect x="1840" y="478" width="11" height="32" style="fill:none;stroke:black;stroke-width:0.56px;"/>
        <rect x="1672" y="504" width="15" height="84" style="fill:none;stroke:black;stroke-width:0.56px;"/>
        <g transform="matrix(1.02679,0,0,1,-59.3036,0)">
            <path d="M2270,467L2214,467" style="fill:none;stroke:black;stroke-width:1.1px;"/>
        </g>
        <g transform="matrix(1,0,0,1,1.5,-40)">
            <path d="M2270,467L2214,467" style="fill:none;stroke:black;stroke-width:1.11px;"/>
        </g>
        <g transform="matrix(1,0,0,1.06452,0,-35.2258)">
            <path d="M2379.5,546L2379.5,577" style="fill:none;stroke:black;stroke-width:1.08px;"/>
        </g>
        <rect x="2360" y="1018" width="39" height="29" style="fill:none;stroke:black;stroke-width:0.56px;"/>
        <rect x="2253" y="1018" width="39" height="29" style="fill:none;stroke:black;stroke-width:0.56px;"/>
        <rect x="1419" y="681" width="56" height="8" style="fill:none;stroke:black;stroke-width:0.56px;"/>
        <g transform="matrix(1,0,0,0.9375,0,42.0625)">
            <rect x="1594" y="673" width="15" height="16" style="fill:none;stroke:black;stroke-width:0.57px;"/>
        </g>
        <g transform="matrix(1,0,0,0.9375,0,42.0625)">
            <rect x="1612" y="673" width="15" height="16" style="fill:none;stroke:black;stroke-width:0.57px;"/>
        </g>
        <g transform="matrix(1,0,0,0.9375,0,42.0625)">
            <rect x="1631" y="673" width="15" height="16" style="fill:none;stroke:black;stroke-width:0.57px;"/>
        </g>
        <rect x="381" y="646" width="13" height="43" style="fill:none;stroke:black;stroke-width:0.56px;"/>
        <rect x="419" y="646" width="13" height="43" style="fill:none;stroke:black;stroke-width:0.56px;"/>
        <rect x="1342" y="500" width="21" height="22" style="fill:none;stroke:black;stroke-width:0.56px;"/>
        <rect x="1342" y="538" width="29" height="44" style="fill:none;stroke:black;stroke-width:0.56px;"/>
        <rect x="1728" y="1074" width="25" height="19" style="fill:none;stroke:black;stroke-width:0.56px;"/>
        <rect x="1872" y="807" width="229" height="220" style="fill:rgb(205,160,226);stroke:black;stroke-width:5.56px;"/>
        <rect x="1815" y="1102" width="68" height="16" style="fill:none;stroke:black;stroke-width:0.56px;"/>
        <rect x="1897" y="1102" width="64" height="16" style="fill:none;stroke:black;stroke-width:0.56px;"/>
        <rect x="1773" y="1074" width="16" height="19" style="fill:none;stroke:black;stroke-width:0.56px;"/>
        <rect x="1815" y="1059" width="146" height="18" style="fill:none;stroke:black;stroke-width:0.56px;"/>
        <path d="M2100,1229L2100,1287" style="fill:none;stroke:black;stroke-width:1.11px;"/>
        <g transform="matrix(1,0,0,1,112,0)">
            <path d="M2100,1229L2100,1287" style="fill:none;stroke:black;stroke-width:1.11px;"/>
        </g>
        <path d="M1419.5,440L1419.5,465" style="fill:none;stroke:black;stroke-width:1.11px;"/>
        <path d="M1344,440L1344,471L1377,471" style="fill:none;stroke:black;stroke-width:1.11px;"/>
        <path d="M1495,440L1495,465" style="fill:none;stroke:black;stroke-width:1.11px;"/>
        <path d="M7,710L7,537L134,537L134,123L460,123L460,101L1165,101L1165,169.5L1195,169.5L1195,238L1502,238L1502,123L1687,123L1687,466L2208,466L2208,350L2441,350L2441,1099L2552,1099L2552,1295L2441,1295L2441,1323L2208,1323L2208,1295L1495,1295L1495,1027L1571,1027L1571,764L1392,764L1392,694L351,694L351,710L7,710Z" style="fill:none;stroke:black;stroke-width:5.56px;"/>
        <path d="M147,537L134,537" style="fill:none;stroke:black;stroke-width:5.56px;"/>
        <g transform="matrix(0.913514,0,0,0.922414,137.903,18.4655)">
            <rect x="1502" y="122" width="185" height="116" style="fill:rgb(205,160,226);stroke:black;stroke-width:6.05px;"/>
        </g>
        <rect x="147" y="135" width="215" height="114" style="fill:rgb(226,215,160);stroke:black;stroke-width:5.56px;"/>
        <g transform="matrix(1,0,0,0.992857,0,1.85)">
            <rect x="147" y="259" width="274" height="280" style="fill:rgb(160,226,190);stroke:black;stroke-width:5.58px;"/>
        </g>
        <path d="M630,579L630,621" style="fill:none;stroke:black;stroke-width:1.11px;"/>
        <rect x="471" y="111" width="233" height="97" style="fill:rgb(226,165,160);stroke:black;stroke-width:5.56px;"/>
        <rect x="704" y="111" width="225" height="97" style="fill:rgb(218,160,226);stroke:black;stroke-width:5.56px;"/>
        <rect x="929" y="111" width="226" height="97" style="fill:rgb(160,226,169);stroke:black;stroke-width:5.56px;"/>
        <rect x="1137" y="246" width="170" height="114" style="fill:rgb(187,160,226);stroke:black;stroke-width:5.56px;"/>
        <rect x="1137" y="360" width="170" height="112" style="fill:rgb(226,220,160);stroke:black;stroke-width:5.56px;"/>
        <rect x="1344" y="246" width="151" height="114" style="fill:rgb(226,165,160);stroke:black;stroke-width:5.56px;"/>
        <rect x="1344" y="360" width="151" height="75" style="fill:rgb(226,188,160);stroke:black;stroke-width:5.56px;"/>
        <rect x="1383" y="472" width="112" height="117" style="fill:rgb(160,172,226);stroke:black;stroke-width:5.56px;"/>
        <rect x="1157" y="472" width="115" height="117" style="fill:rgb(159,192,226);stroke:black;stroke-width:5.56px;"/>
        <rect x="1084" y="472" width="73" height="79" style="fill:rgb(176,160,226);stroke:black;stroke-width:5.56px;"/>
        <rect x="488" y="264" width="540" height="309" style="fill:rgb(179,226,160);stroke:black;stroke-width:5.56px;"/>
        <g transform="matrix(0.930435,0,0,1,161.809,0)">
            <rect x="2326" y="358" width="115" height="181" style="fill:rgb(226,204,160);stroke:black;stroke-width:5.75px;"/>
        </g>
        <rect x="2214" y="585" width="227" height="109" style="fill:rgb(226,160,200);stroke:black;stroke-width:5.56px;"/>
        <rect x="2214" y="789" width="100" height="186" style="fill:rgb(160,226,201);stroke:black;stroke-width:5.56px;"/>
        <rect x="2326" y="789" width="115" height="186" style="fill:rgb(160,165,226);stroke:black;stroke-width:5.56px;"/>
        <g transform="matrix(0.931298,0,0,0.901734,9.48092,59.9653)">
            <rect x="7" y="539" width="131" height="173" style="fill:rgb(255,0,0);stroke:black;stroke-width:6.06px;"/>
        </g>
        <path d="M1130,252L1089,252L1089,464" style="fill:none;stroke:black;stroke-width:1.11px;"/>
        <path d="M1034,573L1038,573L1038,657L801,657L801,626.5L756,626.5L756,648L711,648L711,663L630,663L630,626.5L592,626.5L592,663L537,663L537,648L488,648L488,579" style="fill:none;stroke:black;stroke-width:1.11px;"/>
        <path d="M537,579L537,642" style="fill:none;stroke:black;stroke-width:1.11px;"/>
        <path d="M592,579L592,621" style="fill:none;stroke:black;stroke-width:1.11px;"/>
        <path d="M711,579L711,643" style="fill:none;stroke:black;stroke-width:1.11px;"/>
        <path d="M756,579L756,621" style="fill:none;stroke:black;stroke-width:1.11px;"/>
        <path d="M801,579L801,621" style="fill:none;stroke:black;stroke-width:1.11px;"/>
        <path d="M1089,557L1089,657L1157,657L1157,595" style="fill:none;stroke:black;stroke-width:1.11px;"/>
        <rect x="1164" y="596" width="109" height="61" style="fill:none;stroke:black;stroke-width:1.11px;"/>
        <g transform="matrix(1,0,0,1.06122,0,-36.4286)">
            <path d="M419,546L419,595L144,595L150,595L150,546" style="fill:none;stroke:black;stroke-width:1.08px;"/>
        </g>
        <path d="M144,610.5L190,610.5L190,703" style="fill:none;stroke:black;stroke-width:1.11px;"/>
        <path d="M296,703L296,663L359,663L359,687" style="fill:none;stroke:black;stroke-width:1.11px;"/>
        <path d="M1572,245L1572,320L1503,320" style="fill:none;stroke:black;stroke-width:1.11px;"/>
        <path d="M1594.5,245L1594.5,362L1659,362L1659,390L1679,390" style="fill:none;stroke:black;stroke-width:1.11px;"/>
        <path d="M1503,545L1572,545L1572,588L1503,588" style="fill:none;stroke:black;stroke-width:1.11px;"/>
        <g transform="matrix(1,0,0,1.02632,0,-15.4737)">
            <path d="M1721,475L1721,514L1687,514L1687,588L1767,588L1767,474" style="fill:none;stroke:black;stroke-width:1.1px;"/>
        </g>
        <g transform="matrix(1,0,0,1.06383,0,-33.2553)">
            <path d="M1870,474L1870,521L1990,521L1990,474" style="fill:none;stroke:black;stroke-width:1.08px;"/>
        </g>
        <path d="M2209,474L2209,556L2278,556L2278,435" style="fill:none;stroke:black;stroke-width:1.11px;"/>
        <path d="M1398,692L1501,692L1501,696L1577,696L1577,689L1644,689L1644,764L1577,764" style="fill:none;stroke:black;stroke-width:1.11px;"/>
        <path d="M1501,700L1501,758" style="fill:none;stroke:black;stroke-width:1.11px;"/>
        <g transform="matrix(1,0,0,1,76,1)">
            <path d="M1501,700L1501,758" style="fill:none;stroke:black;stroke-width:1.11px;"/>
        </g>
        <rect x="1775" y="760" width="39" height="106" style="fill:none;stroke:black;stroke-width:1.11px;"/>
        <rect x="2169" y="760" width="39" height="106" style="fill:none;stroke:black;stroke-width:1.11px;"/>
        <path d="M2216,700L2216,782" style="fill:none;stroke:black;stroke-width:1.11px;"/>
        <g transform="matrix(1.33333,0,0,1,-774,0)">
            <path d="M2319,789L2322,789" style="fill:none;stroke:black;stroke-width:0.94px;"/>
        </g>
        <g transform="matrix(1.33333,0,0,1,-774,186)">
            <path d="M2319,789L2322,789" style="fill:none;stroke:black;stroke-width:0.94px;"/>
        </g>
        <path d="M1578,1027L1582,1027L1582,1148L1693,1148L1693,1152L1762,1152L1762,1148L1877,1148L1877,1223L1582,1223L1582,1185.5L1573,1185.5L1573,1223L1502,1223" style="fill:none;stroke:black;stroke-width:1.11px;"/>
        <path d="M1582,1152L1582,1181" style="fill:none;stroke:black;stroke-width:1.11px;"/>
        <path d="M1693,1157L1693,1217" style="fill:none;stroke:black;stroke-width:1.11px;"/>
        <g transform="matrix(1,0,0,1,69,0)">
            <path d="M1693,1157L1693,1217" style="fill:none;stroke:black;stroke-width:1.11px;"/>
        </g>
        <path d="M1502,1249L1922,1249L1922,1223L1909,1223L1909,1148L1989,1148L1989,1113L2100,1113L2100,1218L2212,1218L2212,1215L2383.5,1215L2383.5,1131L2441,1131L2441,1106" style="fill:none;stroke:black;stroke-width:1.11px;"/>
        <path d="M1937,1153L1937,1217" style="fill:none;stroke:black;stroke-width:1.11px;"/>
        <g transform="matrix(1,0,0,1,52,0.5)">
            <path d="M1937,1153L1937,1217" style="fill:none;stroke:black;stroke-width:1.11px;"/>
        </g>
        <path d="M1928,1223L2100,1223" style="fill:none;stroke:black;stroke-width:1.11px;"/>
        <path d="M2388,1215L2545,1215" style="fill:none;stroke:black;stroke-width:1.11px;"/>
        <path d="M2441,1135L2441,1210" style="fill:none;stroke:black;stroke-width:1.11px;"/>
        <rect x="2130" y="1125" width="100" height="17" style="fill:none;stroke:black;stroke-width:0.56px;"/>
        <rect x="2249" y="1125" width="106" height="17" style="fill:none;stroke:black;stroke-width:0.56px;"/>
        <rect x="2130" y="1164" width="100" height="17" style="fill:none;stroke:black;stroke-width:0.56px;"/>
        <rect x="2249" y="1164" width="106" height="17" style="fill:none;stroke:black;stroke-width:0.56px;"/>
        <rect x="2240" y="1202" width="77" height="13" style="fill:none;stroke:black;stroke-width:0.56px;"/>
        <rect x="2317" y="1206" width="29" height="9" style="fill:none;stroke:black;stroke-width:0.56px;"/>
        <path d="M416,251L416,199L463,199" style="fill:none;stroke:black;stroke-width:1.11px;"/>
        <g transform="matrix(1,0,0,1.88235,0,-206.118)">
            <path d="M1165,237L1165,220" style="fill:none;stroke:black;stroke-width:0.74px;"/>
        </g>
        <path d="M1165,208L1160,208" style="fill:none;stroke:black;stroke-width:1.11px;"/>
        <g transform="matrix(1,0,0,1.06452,0,-35.2258)">
            <path d="M2326,577L2326,546" style="fill:none;stroke:black;stroke-width:1.08px;"/>
        </g>
        <g transform="matrix(1,0,0,1,0.852761,6.82782)">
            <text x="239px" y="393px" style="font-family:'Arial-BoldMT', 'Arial', sans-serif;font-weight:700;font-size:39.089px;">1508</text>
        </g>
        <g transform="matrix(0.651818,0,0,0.651818,86.053,169.792)">
            <text x="239px" y="393px" style="font-family:'ArialMT', 'Arial', sans-serif;font-size:39.089px;">Otasali</text>
        </g>
        <g transform="matrix(0.770832,0,0,0.770832,36.2411,-110.299)">
            <text x="239px" y="393px" style="font-family:'Arial-BoldMT', 'Arial', sans-serif;font-weight:700;font-size:39.089px;">1504</text>
        </g>
        <g transform="matrix(0.502442,0,0,0.502442,101.312,17.4546)">
            <text x="239px" y="393px" style="font-family:'ArialMT', 'Arial', sans-serif;font-size:39.089px;">Musiikki</text>
        </g>
        <g transform="matrix(0.770832,0,0,0.770832,369.241,-142.799)">
            <text x="239px" y="393px" style="font-family:'Arial-BoldMT', 'Arial', sans-serif;font-weight:700;font-size:39.089px;">1513</text>
        </g>
        <g transform="matrix(0.502442,0,0,0.502442,432.467,-19.5642)">
            <text x="239px" y="393px" style="font-family:'ArialMT', 'Arial', sans-serif;font-size:39.089px;">Musiikki</text>
        </g>
        <g transform="matrix(0.770832,0,0,0.770832,598.212,-137.265)">
            <text x="239px" y="393px" style="font-family:'Arial-BoldMT', 'Arial', sans-serif;font-weight:700;font-size:39.089px;">1519</text>
        </g>
        <g transform="matrix(0.502442,0,0,0.502442,661.437,-14.0309)">
            <text x="220.496px" y="393px" style="font-family:'ArialMT', 'Arial', sans-serif;font-size:39.089px;">Opetustila</text>
        </g>
        <g transform="matrix(0.770832,0,0,0.770832,825.212,-137.265)">
            <text x="239px" y="393px" style="font-family:'Arial-BoldMT', 'Arial', sans-serif;font-weight:700;font-size:39.089px;">1520</text>
        </g>
        <g transform="matrix(0.502442,0,0,0.502442,888.437,-14.0309)">
            <text x="220.496px" y="393px" style="font-family:'ArialMT', 'Arial', sans-serif;font-size:39.089px;">Opetustila</text>
        </g>
        <g transform="matrix(0.770832,0,0,0.770832,1003.72,0.0613058)">
            <text x="239px" y="393px" style="font-family:'Arial-BoldMT', 'Arial', sans-serif;font-weight:700;font-size:39.089px;">1525</text>
        </g>
        <g transform="matrix(0.502442,0,0,0.502442,1066.94,123.296)">
            <text x="221.564px" y="393px" style="font-family:'ArialMT', 'Arial', sans-serif;font-size:39.089px;">Kuvataide</text>
        </g>
        <g transform="matrix(0.770832,0,0,0.770832,1003.72,105.061)">
            <text x="239px" y="393px" style="font-family:'Arial-BoldMT', 'Arial', sans-serif;font-weight:700;font-size:39.089px;">1530</text>
        </g>
        <g transform="matrix(0.502442,0,0,0.502442,1066.94,228.296)">
            <text x="221.564px" y="393px" style="font-family:'ArialMT', 'Arial', sans-serif;font-size:39.089px;">Kuvataide</text>
        </g>
        <g transform="matrix(0.770832,0,0,0.770832,995.91,231.275)">
            <text x="239px" y="393px" style="font-family:'Arial-BoldMT', 'Arial', sans-serif;font-weight:700;font-size:39.089px;">1534</text>
        </g>
        <g transform="matrix(0.502442,0,0,0.502442,1059.14,354.509)">
            <text x="255.262px" y="393px" style="font-family:'ArialMT', 'Arial', sans-serif;font-size:39.089px;">Media</text>
        </g>
        <g transform="matrix(0.457463,0,0,0.457463,990.774,332.806)">
            <text x="239px" y="393px" style="font-family:'Arial-BoldMT', 'Arial', sans-serif;font-weight:700;font-size:39.089px;">1<tspan x="258.583px 280.322px " y="393px 393px ">10</tspan>6</text>
        </g>
        <g transform="matrix(0.298183,0,0,0.298183,1028.3,405.941)">
            <text x="238.962px" y="393px" style="font-family:'ArialMT', 'Arial', sans-serif;font-size:39.089px;">Editointi</text>
        </g>
        <g transform="matrix(0.770832,0,0,0.770832,1205.72,-8.7486)">
            <text x="239px" y="393px" style="font-family:'Arial-BoldMT', 'Arial', sans-serif;font-weight:700;font-size:39.089px;">1528</text>
        </g>
        <g transform="matrix(0.502442,0,0,0.502442,1268.94,114.486)">
            <text x="202.039px" y="393px" style="font-family:'ArialMT', 'Arial', sans-serif;font-size:39.089px;">Makerspace</text>
        </g>
        <g transform="matrix(0.770832,0,0,0.770832,1375.95,-122.939)">
            <text x="239px" y="393px" style="font-family:'Arial-BoldMT', 'Arial', sans-serif;font-weight:700;font-size:39.089px;">1<tspan x="258.583px 278.166px 299.905px " y="393px 393px 393px ">118</tspan></text>
        </g>
        <g transform="matrix(0.502442,0,0,0.502442,1439.18,0.295873)">
            <text x="186.827px" y="393px" style="font-family:'ArialMT', 'Arial', sans-serif;font-size:39.089px;">Kirjastoluokka</text>
        </g>
        <g transform="matrix(0.770832,0,0,0.770832,2164.95,145.561)">
            <text x="239px" y="393px" style="font-family:'Arial-BoldMT', 'Arial', sans-serif;font-weight:700;font-size:39.089px;">131<tspan x="302.062px " y="393px ">1</tspan></text>
        </g>
        <g transform="matrix(0.502442,0,0,0.502442,2228.18,268.796)">
            <text x="237.912px" y="393px" style="font-family:'ArialMT', 'Arial', sans-serif;font-size:39.089px;">Fysiikka</text>
        </g>
        <g transform="matrix(0.770832,0,0,0.770832,2108.89,336.446)">
            <text x="239px" y="393px" style="font-family:'Arial-BoldMT', 'Arial', sans-serif;font-weight:700;font-size:39.089px;">1315</text>
        </g>
        <g transform="matrix(0.502442,0,0,0.502442,2172.11,459.681)">
            <text x="237.912px" y="393px" style="font-family:'ArialMT', 'Arial', sans-serif;font-size:39.089px;">Fysiikka</text>
        </g>
        <g transform="matrix(0.770832,0,0,0.770832,2045.39,578.946)">
            <text x="239px" y="393px" style="font-family:'Arial-BoldMT', 'Arial', sans-serif;font-weight:700;font-size:39.089px;">1318</text>
        </g>
        <g transform="matrix(0.502442,0,0,0.502442,2108.61,702.181)">
            <text x="237.912px" y="393px" style="font-family:'ArialMT', 'Arial', sans-serif;font-size:39.089px;">Fysiikka</text>
        </g>
        <g transform="matrix(0.770832,0,0,0.770832,2164.89,582.528)">
            <text x="239px" y="393px" style="font-family:'Arial-BoldMT', 'Arial', sans-serif;font-weight:700;font-size:39.089px;">1317</text>
        </g>
        <g transform="matrix(0.502442,0,0,0.502442,2228.11,705.763)">
            <text x="237.912px" y="393px" style="font-family:'ArialMT', 'Arial', sans-serif;font-size:39.089px;">Fysiikka</text>
        </g>
        <g transform="matrix(0.770832,0,0,0.770832,1200.95,94.5613)">
            <text x="239px" y="393px" style="font-family:'Arial-BoldMT', 'Arial', sans-serif;font-weight:700;font-size:39.089px;">1562</text>
        </g>
        <g transform="matrix(0.502442,0,0,0.502442,1264.18,217.796)">
            <text x="202.039px" y="393px" style="font-family:'ArialMT', 'Arial', sans-serif;font-size:39.089px;">Makerspace</text>
        </g>
        <g transform="matrix(0.390143,0,0,0.390143,1318.35,380.886)">
            <text x="189.05px" y="393px" style="font-family:'Arial-BoldMT', 'Arial', sans-serif;font-weight:700;font-size:39.089px;">OPK-HUONE</text>
        </g>
        <g transform="matrix(0.390143,0,0,0.390143,-47.8083,477.632)">
            <text x="216.134px" y="393px" style="font-family:'Arial-BoldMT', 'Arial', sans-serif;font-weight:700;font-size:39.089px;">Yrityskylä</text>
        </g>
        <g transform="matrix(0.390143,0,0,0.390143,1866.19,769.132)">
            <text x="237.922px" y="393px" style="font-family:'Arial-BoldMT', 'Arial', sans-serif;font-weight:700;font-size:39.089px;">PIAZZA</text>
        </g>
        <g transform="matrix(0.390143,0,0,0.390143,637.118,270.632)">
            <text x="200.97px" y="393px" style="font-family:'Arial-BoldMT', 'Arial', sans-serif;font-weight:700;font-size:39.089px;">Liikuntasali</text>
        </g>
        <g>
            <g transform="matrix(0.724138,0,0,0.724138,395.862,198.966)">
                <circle cx="1449.5" cy="728.5" r="14.5" style="fill:rgb(254,255,254);fill-opacity:0;stroke:black;stroke-width:1.53px;"/>
            </g>
            <g transform="matrix(0.724138,0,0,0.724138,396.104,198.603)">
                <text x="1437.86px" y="734px" style="font-family:'Arial-BoldMT', 'Arial', sans-serif;font-weight:700;font-size:13.97px;">WC</text>
            </g>
        </g>
        <g transform="matrix(1,0,0,1,-462,-117)">
            <g transform="matrix(0.724138,0,0,0.724138,395.862,198.966)">
                <circle cx="1449.5" cy="728.5" r="14.5" style="fill:rgb(254,255,254);fill-opacity:0;stroke:black;stroke-width:1.53px;"/>
            </g>
            <g transform="matrix(0.724138,0,0,0.724138,396.104,198.603)">
                <text x="1437.86px" y="734px" style="font-family:'Arial-BoldMT', 'Arial', sans-serif;font-weight:700;font-size:13.97px;">WC</text>
            </g>
        </g>
        <g transform="matrix(1,0,0,1,-589,-117)">
            <g transform="matrix(0.724138,0,0,0.724138,395.862,198.966)">
                <circle cx="1449.5" cy="728.5" r="14.5" style="fill:rgb(254,255,254);fill-opacity:0;stroke:black;stroke-width:1.53px;"/>
            </g>
            <g transform="matrix(0.724138,0,0,0.724138,396.104,198.603)">
                <text x="1437.86px" y="734px" style="font-family:'Arial-BoldMT', 'Arial', sans-serif;font-weight:700;font-size:13.97px;">WC</text>
            </g>
        </g>
        <g transform="matrix(1,0,0,1,797.915,-217)">
            <g transform="matrix(0.724138,0,0,0.724138,395.862,198.966)">
                <circle cx="1449.5" cy="728.5" r="14.5" style="fill:rgb(254,255,254);fill-opacity:0;stroke:black;stroke-width:1.53px;"/>
            </g>
            <g transform="matrix(0.724138,0,0,0.724138,396.104,198.603)">
                <text x="1437.86px" y="734px" style="font-family:'Arial-BoldMT', 'Arial', sans-serif;font-weight:700;font-size:13.97px;">WC</text>
            </g>
        </g>
        <g transform="matrix(1,0,0,1,90.9147,-445)">
            <g transform="matrix(0.724138,0,0,0.724138,395.862,198.966)">
                <circle cx="1449.5" cy="728.5" r="14.5" style="fill:rgb(254,255,254);fill-opacity:0;stroke:black;stroke-width:1.53px;"/>
            </g>
            <g transform="matrix(0.724138,0,0,0.724138,396.104,198.603)">
                <text x="1437.86px" y="734px" style="font-family:'Arial-BoldMT', 'Arial', sans-serif;font-weight:700;font-size:13.97px;">WC</text>
            </g>
        </g>
        <path d="M2318,427L2278,427L2278,358" style="fill:none;stroke:black;stroke-width:1.11px;"/>
    </g>
</svg>
