<?xml version="1.0" encoding="UTF-8" standalone="no"?>
<!DOCTYPE svg PUBLIC "-//W3C//DTD SVG 1.1//EN" "http://www.w3.org/Graphics/SVG/1.1/DTD/svg11.dtd">
<svg width="100%" height="100%" viewBox="0 0 2560 1440" version="1.1" xmlns="http://www.w3.org/2000/svg" xmlns:xlink="http://www.w3.org/1999/xlink" xml:space="preserve" xmlns:serif="http://www.serif.com/" style="fill-rule:evenodd;clip-rule:evenodd;stroke-linecap:round;stroke-linejoin:round;stroke-miterlimit:1.5;">
    <rect id="Artboard1" x="0" y="0" width="2560" height="1440" style="fill:none;"/>
    <g id="Artboard11" serif:id="Artboard1">
        <g transform="matrix(1,0,0,1,-59,-0.5)">
            <path d="M894,1093L894,1128" style="fill:none;stroke:black;stroke-width:0.6px;"/>
        </g>
        <g transform="matrix(5.24849e-17,-1,0.857143,6.12323e-17,-75.8571,1972.5)">
            <path d="M894,1093L894,1128" style="fill:none;stroke:black;stroke-width:0.64px;"/>
        </g>
        <g transform="matrix(2.09939e-17,-1,0.342857,6.12323e-17,417.257,1972.5)">
            <path d="M894,1093L894,1128" style="fill:none;stroke:black;stroke-width:0.8px;"/>
        </g>
        <path d="M649,11L888,11L888,151L979,151L979,1078L1786,1078L1786,1167L1916,1167L1916,1407L979,1407L979,1311L898,1311L898,1426L666,1426L666,1311L649,1311L649,11Z" style="fill:none;stroke:black;stroke-width:6px;"/>
        <rect x="658" y="20" width="220" height="132" style="fill:rgb(255,0,194);stroke:black;stroke-width:6px;"/>
        <rect x="658" y="152" width="125" height="133" style="fill:rgb(0,255,69);stroke:black;stroke-width:6px;"/>
        <rect x="658" y="285" width="125" height="133" style="fill:rgb(93,197,42);stroke:black;stroke-width:6px;"/>
        <rect x="658" y="418" width="227" height="134" style="fill:rgb(149,13,13);stroke:black;stroke-width:6px;"/>
        <rect x="658" y="552" width="231" height="134" style="fill:rgb(164,101,38);stroke:black;stroke-width:6px;"/>
        <rect x="658" y="686" width="231" height="135" style="fill:rgb(129,180,180);stroke:black;stroke-width:6px;"/>
        <rect x="658" y="821" width="231" height="134" style="fill:rgb(232,230,193);stroke:black;stroke-width:6px;"/>
        <rect x="658" y="955" width="129" height="131" style="fill:rgb(198,98,194);stroke:black;stroke-width:6px;"/>
        <g transform="matrix(0.976,0,0,1,26.664,0)">
            <rect x="986" y="1283" width="125" height="114" style="fill:rgb(0,247,255);stroke:black;stroke-width:6.07px;"/>
        </g>
        <rect x="1111" y="1174" width="137" height="223" style="fill:rgb(137,160,233);stroke:black;stroke-width:6px;"/>
        <rect x="1248" y="1174" width="135" height="223" style="fill:rgb(178,136,255);stroke:black;stroke-width:6px;"/>
        <rect x="1383" y="1174" width="135" height="223" style="fill:rgb(195,7,224);stroke:black;stroke-width:6px;"/>
        <rect x="1518" y="1271" width="264" height="126" style="fill:rgb(255,90,0);stroke:black;stroke-width:6px;"/>
        <rect x="1782" y="1179" width="124" height="218" style="fill:rgb(208,255,0);stroke:black;stroke-width:6px;"/>
        <g transform="matrix(1,0,0,0.946237,0,58.3871)">
            <rect x="1694" y="1086" width="83" height="93" style="fill:rgb(255,213,0);stroke:black;stroke-width:6.16px;"/>
        </g>
        <rect x="755" y="1221" width="139" height="44" style="fill:none;stroke:black;stroke-width:0.6px;"/>
        <path d="M658,1182L701,1182L701,1314L675,1314" style="fill:none;stroke:black;stroke-width:0.6px;"/>
        <g transform="matrix(1,0,0,1.4,0,-56.4)">
            <path d="M692,146L692,141L758,141L758,146" style="fill:none;stroke:black;stroke-width:0.49px;"/>
        </g>
        <g transform="matrix(-1,-1.22465e-16,1.46958e-16,-1.2,1450,331.2)">
            <path d="M692,146L692,141L758,141L758,146" style="fill:none;stroke:black;stroke-width:0.54px;"/>
        </g>
        <g transform="matrix(1,0,0,1.4,2,343.6)">
            <path d="M692,146L692,141L758,141L758,146" style="fill:none;stroke:black;stroke-width:0.49px;"/>
        </g>
        <g transform="matrix(-1,-1.22465e-16,1.46958e-16,-1.2,1452,731.2)">
            <path d="M692,146L692,141L758,141L758,146" style="fill:none;stroke:black;stroke-width:0.54px;"/>
        </g>
        <g transform="matrix(6.12323e-17,-1.07576,1.4,9.22196e-17,902.1,2117.42)">
            <path d="M692,146L692,141L758,141L758,146" style="fill:none;stroke:black;stroke-width:0.48px;"/>
        </g>
        <g transform="matrix(-1.83697e-16,1.07576,-1.2,-2.37136e-16,1290.7,557.576)">
            <path d="M692,146L692,141L758,141L758,146" style="fill:none;stroke:black;stroke-width:0.53px;"/>
        </g>
        <g transform="matrix(6.12323e-17,-1.07576,1.4,9.22196e-17,1039.6,2117.42)">
            <path d="M692,146L692,141L758,141L758,146" style="fill:none;stroke:black;stroke-width:0.48px;"/>
        </g>
        <g transform="matrix(-1.83697e-16,1.07576,-1.2,-2.37136e-16,1428.2,557.576)">
            <path d="M692,146L692,141L758,141L758,146" style="fill:none;stroke:black;stroke-width:0.53px;"/>
        </g>
        <g transform="matrix(6.94497e-17,-0.984848,1.25455,5.99335e-17,1594.11,2050.52)">
            <path d="M692,146L692,141L758,141L758,146" style="fill:none;stroke:black;stroke-width:0.53px;"/>
        </g>
        <g transform="matrix(-2.4194e-16,0.984848,-2.01818,-3.13584e-16,2081.56,622.485)">
            <path d="M692,146L692,141L758,141L758,146" style="fill:none;stroke:black;stroke-width:0.38px;"/>
        </g>
        <path d="M1511,1371L1498,1371L1498,1303L1512,1303" style="fill:none;stroke:black;stroke-width:0.6px;"/>
        <g transform="matrix(1,0,0,0.735294,0,269.912)">
            <path d="M1511,1371L1498,1371L1498,1303L1512,1303" style="fill:none;stroke:black;stroke-width:0.68px;"/>
        </g>
        <g transform="matrix(6.12323e-17,-1.16667,1.4,1.00013e-16,1039.6,2088.33)">
            <path d="M692,146L692,141L758,141L758,146" style="fill:none;stroke:black;stroke-width:0.47px;"/>
        </g>
        <g transform="matrix(-1.83697e-16,1.16667,-1.2,-2.57176e-16,1428.2,396.667)">
            <path d="M692,146L692,141L758,141L758,146" style="fill:none;stroke:black;stroke-width:0.51px;"/>
        </g>
        <g transform="matrix(1,0,0,1.1,0,-79.4)">
            <path d="M784,813L784,794L858,794L858,814" style="fill:none;stroke:black;stroke-width:0.57px;"/>
        </g>
        <g transform="matrix(1.15152,0,0,1.4,-14.8485,343.6)">
            <path d="M692,146L692,141L758,141L758,146" style="fill:none;stroke:black;stroke-width:0.47px;"/>
        </g>
        <g transform="matrix(-1.15152,-1.22465e-16,1.69224e-16,-1.2,1654.85,731.2)">
            <path d="M692,146L692,141L758,141L758,146" style="fill:none;stroke:black;stroke-width:0.51px;"/>
        </g>
        <path d="M974,279L970,279L970,291L975,291" style="fill:none;stroke:black;stroke-width:0.6px;"/>
        <g transform="matrix(1,0,0,1,0,132)">
            <path d="M974,279L970,279L970,291L975,291" style="fill:none;stroke:black;stroke-width:0.6px;"/>
        </g>
        <g transform="matrix(1,0,0,1,0,267)">
            <path d="M974,279L970,279L970,291L975,291" style="fill:none;stroke:black;stroke-width:0.6px;"/>
        </g>
        <g transform="matrix(1,0,0,1,0,401)">
            <path d="M974,279L970,279L970,291L975,291" style="fill:none;stroke:black;stroke-width:0.6px;"/>
        </g>
        <g transform="matrix(1,0,0,1,0,533)">
            <path d="M974,279L970,279L970,291L975,291" style="fill:none;stroke:black;stroke-width:0.6px;"/>
        </g>
        <g transform="matrix(1,0,0,1,0,669)">
            <path d="M974,279L970,279L970,291L975,291" style="fill:none;stroke:black;stroke-width:0.6px;"/>
        </g>
        <path d="M796,977L894,977L894,1003L858,1003L858,1042L894,1042L894,1132L788,1132L788,1095" style="fill:none;stroke:black;stroke-width:0.6px;"/>
        <g transform="matrix(1.04124,0,0,1,-36.701,0)">
            <path d="M793,322L890,322L890,418L888,418" style="fill:none;stroke:black;stroke-width:0.59px;"/>
        </g>
        <path d="M791,252L856,252L856,159" style="fill:none;stroke:black;stroke-width:0.6px;"/>
        <path d="M890,159L890,238L971,238" style="fill:none;stroke:black;stroke-width:0.6px;"/>
        <rect x="881" y="279" width="12" height="12" style="fill:none;stroke:black;stroke-width:0.6px;"/>
        <rect x="807" y="1067" width="51" height="23" style="fill:rgb(235,235,235);fill-opacity:0;stroke:black;stroke-width:0.6px;"/>
        <path d="M755,1095L755,1132L658,1132" style="fill:none;stroke:black;stroke-width:0.6px;"/>
        <path d="M674,1346L755,1346L755,1314L890,1314" style="fill:none;stroke:black;stroke-width:0.6px;"/>
        <path d="M983,1283L980,1283L980,1171L1090,1171L1090,1207L1105,1207" style="fill:none;stroke:black;stroke-width:0.6px;"/>
        <g transform="matrix(1,0,0,1.05263,0,-63.3684)">
            <path d="M1659,1261L1659,1204L1774,1204" style="fill:none;stroke:black;stroke-width:0.58px;"/>
        </g>
        <g transform="matrix(1.03896,0,0,1.03448,-62.4935,-40.4828)">
            <path d="M1604,1261L1604,1174L1527,1174" style="fill:none;stroke:black;stroke-width:0.58px;"/>
        </g>
        <rect x="1659" y="1310" width="15" height="15" style="fill:none;stroke:black;stroke-width:0.6px;"/>
        <rect x="1641" y="1169" width="18" height="11" style="fill:none;stroke:black;stroke-width:0.6px;"/>
        <g transform="matrix(1,0,0,1.2,0,-214.1)">
            <path d="M974,1070.5L971,1070.5L971,1085.5L986,1085.5L986,1081.33" style="fill:none;stroke:black;stroke-width:0.54px;"/>
        </g>
        <g transform="matrix(1,0,0,1.26667,0,-291.467)">
            <path d="M1106,1085.5L1106,1093L1121,1093L1121,1085.5" style="fill:none;stroke:black;stroke-width:0.53px;"/>
        </g>
        <g transform="matrix(1,0,0,1.26667,134,-291.217)">
            <path d="M1106,1085.5L1106,1093L1121,1093L1121,1085.5" style="fill:none;stroke:black;stroke-width:0.53px;"/>
        </g>
        <g transform="matrix(1,0,0,1.26667,268,-291.217)">
            <path d="M1106,1085.5L1106,1093L1121,1093L1121,1085.5" style="fill:none;stroke:black;stroke-width:0.53px;"/>
        </g>
        <g transform="matrix(1,0,0,1.26667,402,-291.217)">
            <path d="M1106,1085.5L1106,1093L1121,1093L1121,1085.5" style="fill:none;stroke:black;stroke-width:0.53px;"/>
        </g>
        <g transform="matrix(1,0,0,1.26667,535,-291.217)">
            <path d="M1106,1085.5L1106,1093L1121,1093L1121,1085.5" style="fill:none;stroke:black;stroke-width:0.53px;"/>
        </g>
        <rect x="927" y="677" width="42" height="22" style="fill:rgb(235,235,235);fill-opacity:0;stroke:black;stroke-width:0.3px;"/>
        <rect x="920" y="404" width="49" height="9" style="fill:rgb(235,235,235);fill-opacity:0;stroke:black;stroke-width:0.3px;"/>
        <rect x="920" y="419" width="49" height="9" style="fill:rgb(235,235,235);fill-opacity:0;stroke:black;stroke-width:0.3px;"/>
        <rect x="927" y="945" width="42" height="19" style="fill:rgb(235,235,235);fill-opacity:0;stroke:black;stroke-width:0.3px;"/>
        <rect x="937" y="1073" width="32" height="10" style="fill:rgb(235,235,235);fill-opacity:0;stroke:black;stroke-width:0.3px;"/>
        <g transform="matrix(1,0,0,1,0.5,0.5)">
            <rect x="1102" y="1095" width="22" height="44" style="fill:rgb(235,235,235);fill-opacity:0;stroke:black;stroke-width:0.3px;"/>
        </g>
        <g transform="matrix(1,0,0,1,-2.5,2)">
            <rect x="1372" y="1095" width="24" height="41" style="fill:rgb(235,235,235);fill-opacity:0;stroke:black;stroke-width:0.3px;"/>
        </g>
        <g transform="matrix(1,0,0,1,-136.5,3.5)">
            <rect x="1372" y="1095" width="24" height="41" style="fill:rgb(235,235,235);fill-opacity:0;stroke:black;stroke-width:0.3px;"/>
        </g>
        <g transform="matrix(1,0,0,1,131.5,3.5)">
            <rect x="1372" y="1095" width="24" height="41" style="fill:rgb(235,235,235);fill-opacity:0;stroke:black;stroke-width:0.3px;"/>
        </g>
        <g transform="matrix(1,0,0,1,-2.5,2)">
            <rect x="1639" y="1095" width="24" height="41" style="fill:rgb(235,235,235);fill-opacity:0;stroke:black;stroke-width:0.3px;"/>
        </g>
        <rect x="929" y="859" width="44" height="14" style="fill:rgb(235,235,235);fill-opacity:0;stroke:black;stroke-width:0.3px;"/>
        <rect x="929" y="876" width="44" height="14" style="fill:rgb(235,235,235);fill-opacity:0;stroke:black;stroke-width:0.3px;"/>
        <rect x="932" y="759" width="38" height="13" style="fill:rgb(235,235,235);fill-opacity:0;stroke:black;stroke-width:0.3px;"/>
        <rect x="929" y="714" width="39" height="13" style="fill:rgb(235,235,235);fill-opacity:0;stroke:black;stroke-width:0.3px;"/>
        <rect x="929" y="546" width="39" height="15" style="fill:rgb(235,235,235);fill-opacity:0;stroke:black;stroke-width:0.3px;"/>
        <rect x="760" y="1268" width="129" height="42" style="fill:rgb(235,235,235);fill-opacity:0;stroke:black;stroke-width:0.3px;"/>
        <g>
            <g transform="matrix(0.770832,0,0,0.770832,549.462,-215.102)">
                <text x="239px" y="393px" style="font-family:'Arial-BoldMT', 'Arial', sans-serif;font-weight:700;font-size:39.089px;">3128</text>
            </g>
            <g transform="matrix(0.502442,0,0,0.502442,612.688,-91.8677)">
                <text x="220.496px" y="393px" style="font-family:'ArialMT', 'Arial', sans-serif;font-size:39.089px;">Opetustila</text>
            </g>
        </g>
        <g>
            <g transform="matrix(0.770832,0,0,0.770832,506.912,-82.6022)">
                <text x="239px" y="393px" style="font-family:'Arial-BoldMT', 'Arial', sans-serif;font-weight:700;font-size:39.089px;">3129</text>
            </g>
            <g transform="matrix(0.502442,0,0,0.502442,570.137,40.6323)">
                <text x="220.496px" y="393px" style="font-family:'ArialMT', 'Arial', sans-serif;font-size:39.089px;">Opetustila</text>
            </g>
        </g>
        <g>
            <g transform="matrix(0.770832,0,0,0.770832,502.217,48.5613)">
                <text x="239px" y="393px" style="font-family:'Arial-BoldMT', 'Arial', sans-serif;font-weight:700;font-size:39.089px;">3132</text>
            </g>
            <g transform="matrix(0.502442,0,0,0.502442,565.442,171.796)">
                <text x="220.496px" y="393px" style="font-family:'ArialMT', 'Arial', sans-serif;font-size:39.089px;">Opetustila</text>
            </g>
        </g>
        <g>
            <g transform="matrix(0.770832,0,0,0.770832,553.217,182.061)">
                <text x="239px" y="393px" style="font-family:'Arial-BoldMT', 'Arial', sans-serif;font-weight:700;font-size:39.089px;">3143</text>
            </g>
            <g transform="matrix(0.502442,0,0,0.502442,616.442,305.296)">
                <text x="220.496px" y="393px" style="font-family:'ArialMT', 'Arial', sans-serif;font-size:39.089px;">Opetustila</text>
            </g>
        </g>
        <g>
            <g transform="matrix(0.770832,0,0,0.770832,555.217,316.061)">
                <text x="239px" y="393px" style="font-family:'Arial-BoldMT', 'Arial', sans-serif;font-weight:700;font-size:39.089px;">3144</text>
            </g>
            <g transform="matrix(0.502442,0,0,0.502442,618.442,439.296)">
                <text x="220.496px" y="393px" style="font-family:'ArialMT', 'Arial', sans-serif;font-size:39.089px;">Opetustila</text>
            </g>
        </g>
        <g>
            <g transform="matrix(0.770832,0,0,0.770832,554.898,450.561)">
                <text x="239px" y="393px" style="font-family:'Arial-BoldMT', 'Arial', sans-serif;font-weight:700;font-size:39.089px;">3145</text>
            </g>
            <g transform="matrix(0.502442,0,0,0.502442,618.123,573.796)">
                <text x="220.496px" y="393px" style="font-family:'ArialMT', 'Arial', sans-serif;font-size:39.089px;">Opetustila</text>
            </g>
        </g>
        <g>
            <g transform="matrix(0.770832,0,0,0.770832,555.217,585.061)">
                <text x="239px" y="393px" style="font-family:'Arial-BoldMT', 'Arial', sans-serif;font-weight:700;font-size:39.089px;">3146</text>
            </g>
            <g transform="matrix(0.502442,0,0,0.502442,618.442,708.296)">
                <text x="220.496px" y="393px" style="font-family:'ArialMT', 'Arial', sans-serif;font-size:39.089px;">Opetustila</text>
            </g>
        </g>
        <g>
            <g transform="matrix(0.770832,0,0,0.770832,504.217,717.561)">
                <text x="239px" y="393px" style="font-family:'Arial-BoldMT', 'Arial', sans-serif;font-weight:700;font-size:39.089px;">3147</text>
            </g>
            <g transform="matrix(0.502442,0,0,0.502442,567.442,840.796)">
                <text x="220.496px" y="393px" style="font-family:'ArialMT', 'Arial', sans-serif;font-size:39.089px;">Opetustila</text>
            </g>
        </g>
        <g>
            <g transform="matrix(0.770832,0,0,0.770832,831.717,1037.06)">
                <text x="239px" y="393px" style="font-family:'Arial-BoldMT', 'Arial', sans-serif;font-weight:700;font-size:39.089px;">3223</text>
            </g>
            <g transform="matrix(0.502442,0,0,0.502442,894.942,1160.3)">
                <text x="220.496px" y="393px" style="font-family:'ArialMT', 'Arial', sans-serif;font-size:39.089px;">Opetustila</text>
            </g>
        </g>
        <g>
            <g transform="matrix(0.770832,0,0,0.770832,961.217,982.561)">
                <text x="239px" y="393px" style="font-family:'Arial-BoldMT', 'Arial', sans-serif;font-weight:700;font-size:39.089px;">3225</text>
            </g>
            <g transform="matrix(0.502442,0,0,0.502442,1024.44,1105.8)">
                <text x="220.496px" y="393px" style="font-family:'ArialMT', 'Arial', sans-serif;font-size:39.089px;">Opetustila</text>
            </g>
        </g>
        <g>
            <g transform="matrix(0.770832,0,0,0.770832,1097.22,986.009)">
                <text x="239px" y="393px" style="font-family:'Arial-BoldMT', 'Arial', sans-serif;font-weight:700;font-size:39.089px;">3226</text>
            </g>
            <g transform="matrix(0.502442,0,0,0.502442,1160.44,1109.24)">
                <text x="220.496px" y="393px" style="font-family:'ArialMT', 'Arial', sans-serif;font-size:39.089px;">Opetustila</text>
            </g>
        </g>
        <g>
            <g transform="matrix(0.770832,0,0,0.770832,1232.22,989.456)">
                <text x="239px" y="393px" style="font-family:'Arial-BoldMT', 'Arial', sans-serif;font-weight:700;font-size:39.089px;">3227</text>
            </g>
            <g transform="matrix(0.502442,0,0,0.502442,1295.44,1112.69)">
                <text x="220.496px" y="393px" style="font-family:'ArialMT', 'Arial', sans-serif;font-size:39.089px;">Opetustila</text>
            </g>
        </g>
        <g>
            <g transform="matrix(0.770832,0,0,0.770832,1403.22,1023.67)">
                <text x="239px" y="393px" style="font-family:'Arial-BoldMT', 'Arial', sans-serif;font-weight:700;font-size:39.089px;">3237</text>
            </g>
            <g transform="matrix(0.502442,0,0,0.502442,1466.44,1146.9)">
                <text x="220.496px" y="393px" style="font-family:'ArialMT', 'Arial', sans-serif;font-size:39.089px;">Opetustila</text>
            </g>
        </g>
        <g>
            <g transform="matrix(0.770832,0,0,0.770832,1625.72,985.061)">
                <text x="239px" y="393px" style="font-family:'Arial-BoldMT', 'Arial', sans-serif;font-weight:700;font-size:39.089px;">3240</text>
            </g>
            <g transform="matrix(0.502442,0,0,0.502442,1688.94,1108.3)">
                <text x="220.496px" y="393px" style="font-family:'ArialMT', 'Arial', sans-serif;font-size:39.089px;">Opetustila</text>
            </g>
        </g>
        <g transform="matrix(0.486145,0,0,0.486112,1598.24,945.666)">
            <text x="239px" y="393px" style="font-family:'Arial-BoldMT', 'Arial', sans-serif;font-weight:700;font-size:39.089px;">3238</text>
        </g>
        <g transform="matrix(1,0,0,1,-606,-356.5)">
            <g transform="matrix(0.724138,0,0,0.724138,395.862,198.966)">
                <circle cx="1449.5" cy="728.5" r="14.5" style="fill:rgb(254,255,254);fill-opacity:0;stroke:black;stroke-width:1.53px;"/>
            </g>
            <g transform="matrix(0.724138,0,0,0.724138,396.104,198.603)">
                <text x="1437.86px" y="734px" style="font-family:'Arial-BoldMT', 'Arial', sans-serif;font-weight:700;font-size:13.97px;">WC</text>
            </g>
        </g>
        <g transform="matrix(1,0,0,1,-616.5,294)">
            <g transform="matrix(0.724138,0,0,0.724138,395.862,198.966)">
                <circle cx="1449.5" cy="728.5" r="14.5" style="fill:rgb(254,255,254);fill-opacity:0;stroke:black;stroke-width:1.53px;"/>
            </g>
            <g transform="matrix(0.724138,0,0,0.724138,396.104,198.603)">
                <text x="1437.86px" y="734px" style="font-family:'Arial-BoldMT', 'Arial', sans-serif;font-weight:700;font-size:13.97px;">WC</text>
            </g>
        </g>
        <g transform="matrix(1,0,0,1,-403,500.5)">
            <g transform="matrix(0.724138,0,0,0.724138,395.862,198.966)">
                <circle cx="1449.5" cy="728.5" r="14.5" style="fill:rgb(254,255,254);fill-opacity:0;stroke:black;stroke-width:1.53px;"/>
            </g>
            <g transform="matrix(0.724138,0,0,0.724138,396.104,198.603)">
                <text x="1437.86px" y="734px" style="font-family:'Arial-BoldMT', 'Arial', sans-serif;font-weight:700;font-size:13.97px;">WC</text>
            </g>
        </g>
        <g transform="matrix(1,0,0,1,118.5,492.5)">
            <g transform="matrix(0.724138,0,0,0.724138,395.862,198.966)">
                <circle cx="1449.5" cy="728.5" r="14.5" style="fill:rgb(254,255,254);fill-opacity:0;stroke:black;stroke-width:1.53px;"/>
            </g>
            <g transform="matrix(0.724138,0,0,0.724138,396.104,198.603)">
                <text x="1437.86px" y="734px" style="font-family:'Arial-BoldMT', 'Arial', sans-serif;font-weight:700;font-size:13.97px;">WC</text>
            </g>
        </g>
    </g>
</svg>
