<?xml version="1.0" encoding="UTF-8" standalone="no"?>
<!DOCTYPE svg PUBLIC "-//W3C//DTD SVG 1.1//EN" "http://www.w3.org/Graphics/SVG/1.1/DTD/svg11.dtd">
<svg width="100%" height="100%" viewBox="0 0 2560 1440" version="1.1" xmlns="http://www.w3.org/2000/svg" xmlns:xlink="http://www.w3.org/1999/xlink" xml:space="preserve" xmlns:serif="http://www.serif.com/" style="fill-rule:evenodd;clip-rule:evenodd;stroke-linecap:round;stroke-linejoin:round;stroke-miterlimit:1.5;">
    <rect id="Artboard1" x="0" y="0" width="2560" height="1440" style="fill:none;"/>
    <g id="Artboard11" serif:id="Artboard1">
        <circle cx="1325.75" cy="580.25" r="14.75" style="fill:rgb(235,235,235);fill-opacity:0;stroke:black;stroke-width:0.3px;"/>
        <rect x="1018" y="773" width="375" height="162" style="fill:rgb(0,183,255);stroke:black;stroke-width:6px;"/>
        <path d="M628,496L1751,496L1751,629L1936,629L1936,945L628,945L628,496Z" style="fill:none;stroke:black;stroke-width:6px;"/>
        <rect x="1018" y="506" width="255" height="128" style="fill:rgb(0,255,28);stroke:black;stroke-width:6px;"/>
        <rect x="1393" y="506" width="348" height="128" style="fill:rgb(0,255,94);stroke:black;stroke-width:6px;"/>
        <rect x="1755" y="640" width="172" height="295" style="fill:rgb(0,255,158);stroke:black;stroke-width:6px;"/>
        <rect x="1393" y="773" width="362" height="162" style="fill:rgb(0,255,244);stroke:black;stroke-width:6px;"/>
        <rect x="806" y="818" width="25" height="91" style="fill:none;stroke:black;stroke-width:0.6px;"/>
        <path d="M825,517L825,539" style="fill:none;stroke:black;stroke-width:0.6px;"/>
        <g transform="matrix(1,0,0,1.2,0,-102.6)">
            <path d="M817,503L817,513L833,513L833,504.5" style="fill:none;stroke:black;stroke-width:0.54px;"/>
        </g>
        <rect x="825" y="543" width="42" height="19" style="fill:none;stroke:black;stroke-width:0.6px;"/>
        <rect x="792" y="619" width="33" height="18" style="fill:none;stroke:black;stroke-width:0.6px;"/>
        <path d="M825,566.5L825,614" style="fill:none;stroke:black;stroke-width:0.6px;"/>
        <path d="M1011,543L971,543L971,562L1011,562" style="fill:none;stroke:black;stroke-width:0.6px;"/>
        <path d="M831,637L1011,637" style="fill:none;stroke:black;stroke-width:0.6px;"/>
        <g transform="matrix(1,0,0,1.02767,0,-17.4585)">
            <path d="M920,504.5L920,631" style="fill:none;stroke:black;stroke-width:0.59px;"/>
        </g>
        <path d="M635,674L666,674L666,779L634,779" style="fill:none;stroke:black;stroke-width:0.6px;"/>
        <g transform="matrix(1.11538,0,0,1,-73.1538,0)">
            <path d="M660,710L634,710" style="fill:none;stroke:black;stroke-width:0.57px;"/>
        </g>
        <g transform="matrix(1.11538,0,0,1,-73.1538,34)">
            <path d="M660,710L634,710" style="fill:none;stroke:black;stroke-width:0.57px;"/>
        </g>
        <rect x="788" y="674" width="35" height="105" style="fill:none;stroke:black;stroke-width:0.6px;"/>
        <path d="M785,674L748,674L748,779L785,779" style="fill:none;stroke:black;stroke-width:0.6px;"/>
        <path d="M752,710L785,710" style="fill:none;stroke:black;stroke-width:0.6px;"/>
        <g transform="matrix(1,0,0,1,-0.5,34)">
            <path d="M752,710L785,710" style="fill:none;stroke:black;stroke-width:0.6px;"/>
        </g>
        <path d="M634,818L695,818L695,841L634,841" style="fill:none;stroke:black;stroke-width:0.6px;"/>
        <path d="M754,939L754,929L806,929L806,939" style="fill:none;stroke:black;stroke-width:0.6px;"/>
        <path d="M818.5,914L818.5,939" style="fill:none;stroke:black;stroke-width:0.6px;"/>
        <path d="M836,818L1010,818" style="fill:none;stroke:black;stroke-width:0.6px;"/>
        <path d="M884,823L884,939" style="fill:none;stroke:black;stroke-width:0.6px;"/>
        <path d="M1010,779L1001,779L1001,674L1027,674L1027,765" style="fill:none;stroke:black;stroke-width:0.6px;"/>
        <path d="M997,674L948,674L948,779L998,779" style="fill:none;stroke:black;stroke-width:0.6px;"/>
        <path d="M1031,674L1372,674L1372,708L1397,708L1397,674L1434,674L1434,765" style="fill:none;stroke:black;stroke-width:0.6px;"/>
        <path d="M1145,678L1145,772" style="fill:none;stroke:black;stroke-width:0.6px;"/>
        <g transform="matrix(1,0,0,1,64,-2)">
            <path d="M1145,678L1145,772" style="fill:none;stroke:black;stroke-width:0.6px;"/>
        </g>
        <g transform="matrix(1,0,0,1,126,-2)">
            <path d="M1145,678L1145,772" style="fill:none;stroke:black;stroke-width:0.6px;"/>
        </g>
        <path d="M1213,723L1268,723" style="fill:none;stroke:black;stroke-width:0.6px;"/>
        <path d="M1397,765L1397,711" style="fill:none;stroke:black;stroke-width:0.6px;"/>
        <g transform="matrix(1,0,0,1,-25,0)">
            <path d="M1397,765L1397,711" style="fill:none;stroke:black;stroke-width:0.6px;"/>
        </g>
        <path d="M1401,708L1430,708" style="fill:none;stroke:black;stroke-width:0.6px;"/>
        <g transform="matrix(1,0,0,1,0,32)">
            <path d="M1401,708L1430,708" style="fill:none;stroke:black;stroke-width:0.6px;"/>
        </g>
        <g transform="matrix(1,0,0,1,84.5,0)">
            <path d="M1401,708L1430,708" style="fill:none;stroke:black;stroke-width:0.6px;"/>
        </g>
        <g transform="matrix(1,0,0,1,84.5,32)">
            <path d="M1401,708L1430,708" style="fill:none;stroke:black;stroke-width:0.6px;"/>
        </g>
        <path d="M1482,765L1482,674L1747,674" style="fill:none;stroke:black;stroke-width:0.6px;"/>
        <path d="M1518,678L1518,765" style="fill:none;stroke:black;stroke-width:0.6px;"/>
        <g transform="matrix(1,0,0,1,74,0)">
            <path d="M1518,678L1518,765" style="fill:none;stroke:black;stroke-width:0.6px;"/>
        </g>
        <g transform="matrix(1,0,0,1,152,0)">
            <path d="M1518,678L1518,765" style="fill:none;stroke:black;stroke-width:0.6px;"/>
        </g>
        <g transform="matrix(1,0,0,1.54545,4,-345.818)">
            <path d="M1385,623L1366,623L1366,634L1385,634" style="fill:none;stroke:black;stroke-width:0.46px;"/>
        </g>
        <path d="M1386,588L1379,588L1379.5,518L1387,518" style="fill:none;stroke:black;stroke-width:0.6px;"/>
        <g transform="matrix(-1,-1.22465e-16,1.22465e-16,-1,2785,1106)">
            <path d="M1386,588L1379,588L1379.5,518L1387,518" style="fill:none;stroke:black;stroke-width:0.6px;"/>
        </g>
        <path d="M1898,647L1898,692L1920,692" style="fill:none;stroke:black;stroke-width:0.6px;"/>
        <path d="M1762,808L1778,808L1778,900L1761,900" style="fill:none;stroke:black;stroke-width:0.6px;"/>
        <path d="M1385,813L1370,813L1370,889L1344,889L1344,929" style="fill:none;stroke:black;stroke-width:0.6px;"/>
        <path d="M1400,889L1430,889L1430,928" style="fill:none;stroke:black;stroke-width:0.6px;"/>
        <rect x="634" y="536" width="41" height="59" style="fill:rgb(235,235,235);fill-opacity:0;stroke:black;stroke-width:0.3px;"/>
        <rect x="906" y="682" width="23" height="86" style="fill:rgb(235,235,235);fill-opacity:0;stroke:black;stroke-width:0.3px;"/>
        <rect x="823" y="677" width="10" height="82" style="fill:rgb(235,235,235);fill-opacity:0;stroke:black;stroke-width:0.3px;"/>
        <g>
            <g transform="matrix(0.770832,0,0,0.770832,897.257,261.561)">
                <text x="239px" y="393px" style="font-family:'Arial-BoldMT', 'Arial', sans-serif;font-weight:700;font-size:39.089px;">Luokka 1</text>
            </g>
            <g transform="matrix(0.502442,0,0,0.502442,990.442,385.796)">
                <text x="220.496px" y="393px" style="font-family:'ArialMT', 'Arial', sans-serif;font-size:39.089px;">Opetustila</text>
            </g>
            <g transform="matrix(0.337239,0,0,0.337239,1041.67,464.099)">
                <text x="265.015px" y="393px" style="font-family:'ArialMT', 'Arial', sans-serif;font-size:39.089px;fill-opacity:0.52;">4219</text>
            </g>
        </g>
        <g>
            <g transform="matrix(0.770832,0,0,0.770832,1318.76,256.743)">
                <text x="239px" y="393px" style="font-family:'Arial-BoldMT', 'Arial', sans-serif;font-weight:700;font-size:39.089px;">Luokka 2</text>
            </g>
            <g transform="matrix(0.502442,0,0,0.502442,1411.94,380.978)">
                <text x="220.496px" y="393px" style="font-family:'ArialMT', 'Arial', sans-serif;font-size:39.089px;">Opetustila</text>
            </g>
            <g transform="matrix(0.337239,0,0,0.337239,1463.17,459.281)">
                <text x="265.015px" y="393px" style="font-family:'ArialMT', 'Arial', sans-serif;font-size:39.089px;fill-opacity:0.52;">4223</text>
            </g>
        </g>
        <g>
            <g transform="matrix(0.770832,0,0,0.770832,1591.07,479.24)">
                <text x="239px" y="393px" style="font-family:'Arial-BoldMT', 'Arial', sans-serif;font-weight:700;font-size:39.089px;">Luokka 3</text>
            </g>
            <g transform="matrix(0.502442,0,0,0.502442,1684.25,603.475)">
                <text x="220.496px" y="393px" style="font-family:'ArialMT', 'Arial', sans-serif;font-size:39.089px;">Opetustila</text>
            </g>
            <g transform="matrix(0.337239,0,0,0.337239,1735.48,681.777)">
                <text x="265.015px" y="393px" style="font-family:'ArialMT', 'Arial', sans-serif;font-size:39.089px;fill-opacity:0.52;">4256</text>
            </g>
        </g>
        <g>
            <g transform="matrix(0.770832,0,0,0.770832,1323.95,545.743)">
                <text x="239px" y="393px" style="font-family:'Arial-BoldMT', 'Arial', sans-serif;font-weight:700;font-size:39.089px;">Luokka 4</text>
            </g>
            <g transform="matrix(0.502442,0,0,0.502442,1417.14,669.978)">
                <text x="220.496px" y="393px" style="font-family:'ArialMT', 'Arial', sans-serif;font-size:39.089px;">Opetustila</text>
            </g>
            <g transform="matrix(0.337239,0,0,0.337239,1468.37,748.281)">
                <text x="265.015px" y="393px" style="font-family:'ArialMT', 'Arial', sans-serif;font-size:39.089px;fill-opacity:0.52;">4265</text>
            </g>
        </g>
        <g>
            <g transform="matrix(0.770832,0,0,0.770832,955.153,545.743)">
                <text x="239px" y="393px" style="font-family:'Arial-BoldMT', 'Arial', sans-serif;font-weight:700;font-size:39.089px;">Luokka 5</text>
            </g>
            <g transform="matrix(0.502442,0,0,0.502442,1048.34,669.978)">
                <text x="220.496px" y="393px" style="font-family:'ArialMT', 'Arial', sans-serif;font-size:39.089px;">Opetustila</text>
            </g>
            <g transform="matrix(0.337239,0,0,0.337239,1099.57,748.281)">
                <text x="265.015px" y="393px" style="font-family:'ArialMT', 'Arial', sans-serif;font-size:39.089px;fill-opacity:0.52;">4270</text>
            </g>
        </g>
        <g transform="matrix(1,0,0,1,-736,0)">
            <g transform="matrix(0.724138,0,0,0.724138,395.862,198.966)">
                <circle cx="1449.5" cy="728.5" r="14.5" style="fill:rgb(254,255,254);fill-opacity:0;stroke:black;stroke-width:1.53px;"/>
            </g>
            <g transform="matrix(0.724138,0,0,0.724138,396.104,198.603)">
                <text x="1437.86px" y="734px" style="font-family:'Arial-BoldMT', 'Arial', sans-serif;font-weight:700;font-size:13.97px;">WC</text>
            </g>
        </g>
        <g transform="matrix(1,0,0,1,13,-6.5)">
            <g transform="matrix(0.724138,0,0,0.724138,395.862,198.966)">
                <circle cx="1449.5" cy="728.5" r="14.5" style="fill:rgb(254,255,254);fill-opacity:0;stroke:black;stroke-width:1.53px;"/>
            </g>
            <g transform="matrix(0.724138,0,0,0.724138,396.104,198.603)">
                <text x="1437.86px" y="734px" style="font-family:'Arial-BoldMT', 'Arial', sans-serif;font-weight:700;font-size:13.97px;">WC</text>
            </g>
        </g>
    </g>
</svg>
